<svg fill="none" height="16" viewBox="0 0 16 16" width="16" xmlns="http://www.w3.org/2000/svg"><g fill="#212121"><path d="m10 8.5c.2761 0 .5-.22386.5-.5s-.2239-.5-.5-.5c-.27614 0-.5.22386-.5.5s.22386.5.5.5z"/><path d="m1 5.5c0-1.38071 1.11929-2.5 2.5-2.5h9c1.3807 0 2.5 1.11929 2.5 2.5v5c0 1.3807-1.1193 2.5-2.5 2.5h-9c-1.38071 0-2.5-1.1193-2.5-2.5zm3.5.5c-.27614 0-.5.22386-.5.5v3c0 .27614.22386.5.5.5s.5-.22386.5-.5v-3c0-.27614-.22386-.5-.5-.5zm6.8538 2.64671c.0937-.19582.1462-.41514.1462-.64671s-.0525-.45089-.1462-.64671l.4998-.49974c.1952-.19526.1952-.51184 0-.7071-.1953-.19527-.5119-.19527-.7072 0l-.4997.49974c-.1958-.09371-.4151-.14619-.6467-.14619-.23157 0-.45089.05248-.64671.14619l-.49974-.49974c-.19526-.19527-.51184-.19527-.7071 0-.19527.19526-.19527.51184 0 .7071l.49973.49974c-.0937.19582-.14618.41514-.14618.64671s.05248.45089.14619.64671l-.49974.49974c-.19527.19526-.19527.51184 0 .7071.19526.19525.51184.19525.7071 0l.49974-.49973c.19582.0937.41514.14618.64671.14618.2316 0 .4509-.05248.6467-.14618l.4997.49973c.1953.19525.5119.19525.7072 0 .1952-.19526.1952-.51184 0-.7071z"/></g></svg>